<svg width="27" height="19" viewBox="0 0 27 19" fill="none" xmlns="http://www.w3.org/2000/svg">
    <path d="M15.8101 15.0771V4.44341C15.8101 3.60791 15.1325 2.92432 14.3043 2.92432H3.76427C2.93612 2.92432 2.25854 3.60791 2.25854 4.44341V15.0771C2.25854 15.9126 2.93612 16.5962 3.76427 16.5962H14.3043C15.1325 16.5962 15.8101 15.9126 15.8101 15.0771ZM6.39928 10.8996L8.28144 13.1858L10.9165 9.76025L14.3043 14.3175H3.76427L6.39928 10.8996Z" fill="#8290A0"/>
    <path d="M26.4004 9.40029L22.5114 9.41205V5.5996C22.5114 5.26742 22.244 5 21.9118 5C21.5797 5 21.3122 5.26742 21.3122 5.5996L21.324 9.4004H17.5996C17.2674 9.4004 17 9.66781 17 10C17 10.3321 17.2674 10.5995 17.5996 10.5995H21.3181V14.4004C21.3181 14.7324 21.5855 15 21.9177 15C22.2499 15 22.5173 14.7324 22.5173 14.4004V10.5996H26.4004C26.7326 10.5996 27 10.332 27 10C27 9.66771 26.7296 9.40029 26.4004 9.40029Z" fill="#8290A0"/>
    </svg>
    