<svg width="32" height="24" viewBox="0 0 32 24" fill="none" xmlns="http://www.w3.org/2000/svg">
    <path fill-rule="evenodd" clip-rule="evenodd" d="M16.0725 4.02447C15.1064 3.04182 13.743 2.5 12.1521 2.5C10.5612 2.5 9.19782 3.04182 8.23176 4.02447C7.26645 5.00636 6.73653 6.38891 6.73653 8C6.73653 10.169 7.6809 11.567 8.84969 12.4062C9.07684 12.5692 9.31159 12.7107 9.54841 12.8327C8.24224 13.1916 7.18167 13.8173 6.31818 14.5934C4.95281 15.8205 4.10656 17.3993 3.53642 18.813C3.43314 19.0691 3.55702 19.3604 3.81313 19.4637C4.06923 19.567 4.36056 19.4431 4.46384 19.187C5.00651 17.8414 5.78155 16.4202 6.98662 15.3371C8.17959 14.265 9.82018 13.5 12.1521 13.5C14.3321 13.5 15.9059 14.1685 17.0741 15.1279C18.2521 16.0953 19.0454 17.3816 19.6138 18.6532C19.993 19.5016 19.3275 20.5 18.2828 20.5H6.74497C6.46883 20.5 6.24497 20.7239 6.24497 21C6.24497 21.2761 6.46883 21.5 6.74497 21.5H18.2828C19.9349 21.5 21.248 19.8588 20.5268 18.2452C19.9233 16.8952 19.0505 15.4569 17.7088 14.3551C16.9124 13.7011 15.9604 13.1737 14.8204 12.8507C15.4301 12.5136 15.9313 12.0662 16.3301 11.5591C17.193 10.462 17.5677 9.10016 17.5677 8C17.5677 6.38891 17.0378 5.00636 16.0725 4.02447ZM15.3594 4.72553C16.1145 5.49364 16.5677 6.61109 16.5677 8C16.5677 8.89984 16.2542 10.038 15.5441 10.9409C14.8476 11.8265 13.7608 12.5 12.1521 12.5C11.5015 12.5 10.379 12.2731 9.43293 11.5938C8.5126 10.933 7.73653 9.83102 7.73653 8C7.73653 6.61109 8.18972 5.49364 8.94486 4.72553C9.69925 3.95818 10.7936 3.5 12.1521 3.5C13.5106 3.5 14.605 3.95818 15.3594 4.72553Z" fill="#8290A0"/>
    <path d="M26.5312 18H27.4688V13.4688H32V12.5312H27.4688V8H26.5312V12.5312H22V13.4688H26.5312V18Z" fill="#8290A0"/>
    </svg>
    