<svg width="25" height="15" viewBox="0 0 25 15" fill="none" xmlns="http://www.w3.org/2000/svg">
    <path d="M11.8242 14.2774V13.7358C11.8242 13.3768 11.548 13.0777 11.1905 13.0485C10.9159 13.0255 10.6413 13.0009 10.3667 12.9718C9.83737 12.9165 9.25437 12.8582 9.25437 12.2001L9.2513 2.02057C11.3378 1.98988 12.4808 3.19731 13.0868 4.98467C13.1835 5.27156 13.452 5.46488 13.7542 5.46488H14.3096C14.6916 5.46488 15 5.1565 15 4.77448V0.722622C15 0.340603 14.6916 0.0322266 14.3096 0.0322266H7.50077H7.4977H0.690396C0.308377 0.0322266 0 0.340603 0 0.722622V4.77448C0 5.1565 0.308377 5.46488 0.690396 5.46488H1.24578C1.54802 5.46488 1.81651 5.27156 1.91316 4.98467C2.51764 3.19731 3.66217 1.98988 5.7487 2.02057L5.74409 12.2001C5.74409 12.8582 5.16109 12.9166 4.63179 12.9718C4.35716 13.0009 4.08254 13.0255 3.80792 13.0485C3.45044 13.0777 3.17429 13.3768 3.17429 13.7358V14.2774C3.17429 14.6594 3.48266 14.9678 3.86468 14.9678H7.4977H7.5023H11.1338C11.5143 14.9678 11.8242 14.6579 11.8242 14.2774Z" fill="#8290A0"/>
    <path d="M24.4004 7.40029L20.5114 7.41205V3.5996C20.5114 3.26742 20.244 3 19.9118 3C19.5797 3 19.3122 3.26742 19.3122 3.5996L19.324 7.4004H15.5996C15.2674 7.4004 15 7.66781 15 8C15 8.33208 15.2674 8.5995 15.5996 8.5995H19.3181V12.4004C19.3181 12.7324 19.5855 13 19.9177 13C20.2499 13 20.5173 12.7324 20.5173 12.4004V8.5996H24.4004C24.7326 8.5996 25 8.33197 25 8C25 7.66771 24.7296 7.40029 24.4004 7.40029Z" fill="#8290A0"/>
    </svg>
    