<svg width="18" height="17" viewBox="0 0 18 17" fill="none" xmlns="http://www.w3.org/2000/svg">
    <path d="M9 0C4.0374 0 0 3.28396 0 7.32051C0 9.69911 1.39198 11.8941 3.7471 13.2682C3.42035 14.7852 2.68807 15.8497 2.68005 15.8612L1.8795 17L3.26801 16.8233C3.42795 16.8028 7.15307 16.3125 9.80816 14.6116C11.9885 14.454 14.0136 13.6596 15.5266 12.3654C17.1216 11.0008 18 9.20921 18 7.32059C18 3.28396 13.9626 0 9 0ZM9.56878 13.3932L9.39941 13.4028L9.25856 13.4968C7.71457 14.5268 5.6476 15.0983 4.34729 15.3777C4.62006 14.7721 4.90672 13.9671 5.04981 13.0377L5.11668 12.6032L4.72479 12.3993C2.54268 11.2636 1.23989 9.36517 1.23989 7.32051C1.23989 3.963 4.72107 1.23133 9 1.23133C13.2789 1.23133 16.7601 3.96291 16.7601 7.32051C16.7601 10.4959 13.6013 13.1633 9.56878 13.3932Z" fill="#8290A0"/>
    </svg>
    