<svg width="24" height="24" viewBox="0 0 24 24" fill="none" xmlns="http://www.w3.org/2000/svg">
    <path d="M15 11.9998C15 13.6538 13.654 14.9998 12 14.9998C10.346 14.9998 9 13.6538 9 11.9998C9 10.3458 10.346 8.99976 12 8.99976C13.654 8.99976 15 10.3458 15 11.9998ZM24 11.5508C24 11.5508 19.748 19.9998 12.015 19.9998C4.835 19.9998 0 11.5508 0 11.5508C0 11.5508 4.446 3.99976 12.015 3.99976C19.709 3.99976 24 11.5508 24 11.5508ZM17 11.9998C17 9.24276 14.757 6.99976 12 6.99976C9.243 6.99976 7 9.24276 7 11.9998C7 14.7568 9.243 16.9998 12 16.9998C14.757 16.9998 17 14.7568 17 11.9998Z" fill="white"/>
    </svg>
    