<svg width="20" height="20" viewBox="0 0 20 20" fill="none" xmlns="http://www.w3.org/2000/svg">
    <path d="M9.26821 15.5591C9.36427 15.6552 9.47831 15.7314 9.60382 15.7834C9.72933 15.8354 9.86386 15.8621 9.99971 15.8621C10.1356 15.8621 10.2701 15.8354 10.3956 15.7834C10.5211 15.7314 10.6352 15.6552 10.7312 15.5591L14.6325 11.6579C14.8265 11.4638 14.9355 11.2007 14.9355 10.9264C14.9355 10.652 14.8265 10.3889 14.6325 10.1949C14.4385 10.0009 14.1753 9.89188 13.901 9.89188C13.6266 9.89188 13.3635 10.0009 13.1695 10.1949L11.0342 12.3302V1.03449C11.0342 0.760124 10.9252 0.496998 10.7312 0.302994C10.5372 0.10899 10.2741 0 9.99971 0C9.72535 0 9.46223 0.10899 9.26822 0.302994C9.07422 0.496998 8.96523 0.760124 8.96523 1.03449V12.3302L6.82993 10.1949C6.63593 10.0009 6.3728 9.89188 6.09844 9.89188C5.82408 9.89188 5.56096 10.0009 5.36696 10.1949C5.17295 10.3889 5.06396 10.652 5.06396 10.9264C5.06396 11.2007 5.17295 11.4638 5.36696 11.6579L9.26821 15.5591Z" fill="#8290A0"/>
    <path d="M18.9655 8.96558C18.6912 8.96558 18.428 9.07457 18.234 9.26857C18.04 9.46257 17.931 9.7257 17.931 10.0001V17.9311H2.06897V10.0001C2.06897 9.7257 1.95998 9.46257 1.76597 9.26857C1.57197 9.07457 1.30884 8.96558 1.03448 8.96558C0.760121 8.96558 0.496996 9.07457 0.302993 9.26857C0.10899 9.46257 0 9.7257 0 10.0001V18.276C0 18.7332 0.18165 19.1718 0.504988 19.4951C0.828327 19.8185 1.26687 20.0001 1.72414 20.0001H18.2759C18.7331 20.0001 19.1717 19.8185 19.495 19.4951C19.8183 19.1718 20 18.7332 20 18.276V10.0001C20 9.7257 19.891 9.46257 19.697 9.26857C19.503 9.07457 19.2399 8.96558 18.9655 8.96558Z" fill="#8290A0"/>
    </svg>
    